<svg width="48" height="48" viewBox="0 0 48 48" fill="none" xmlns="http://www.w3.org/2000/svg">
<rect y="0.00012207" width="48" height="48" rx="24" fill="white" fill-opacity="0.85"/>
<path d="M22.6945 20.9371V22.3141H21.6865V23.9971H22.6945V29.0001H24.7665V23.9971H26.1565C26.1565 23.9971 26.2875 23.1901 26.3505 22.3071H24.7745V21.1571C24.7745 20.9841 25.0005 20.7531 25.2245 20.7531H26.3525V19.0001H24.8175C22.6435 19.0001 22.6945 20.6851 22.6945 20.9371Z" fill="#7D8BA1"/>
<path d="M24 32.0001C26.1217 32.0001 28.1566 31.1572 29.6569 29.657C31.1571 28.1567 32 26.1218 32 24.0001C32 21.8784 31.1571 19.8436 29.6569 18.3433C28.1566 16.843 26.1217 16.0001 24 16.0001C21.8783 16.0001 19.8434 16.843 18.3432 18.3433C16.8429 19.8436 16 21.8784 16 24.0001C16 26.1218 16.8429 28.1567 18.3432 29.657C19.8434 31.1572 21.8783 32.0001 24 32.0001ZM24 34.0001C18.477 34.0001 14 29.5231 14 24.0001C14 18.4771 18.477 14.0001 24 14.0001C29.523 14.0001 34 18.4771 34 24.0001C34 29.5231 29.523 34.0001 24 34.0001Z" fill="#7D8BA1"/>
</svg>
