<svg width="16" height="16" viewBox="0 0 16 16" fill="none" xmlns="http://www.w3.org/2000/svg">
<path d="M7.75022 7.23608V4.94442L10.8058 7.99997L7.75022 11.0555V8.76386H4.69466V7.23608H7.75022ZM7.75022 0.361084C11.9669 0.361084 15.3891 3.78331 15.3891 7.99997C15.3891 12.2166 11.9669 15.6389 7.75022 15.6389C3.53355 15.6389 0.111328 12.2166 0.111328 7.99997C0.111328 3.78331 3.53355 0.361084 7.75022 0.361084ZM7.75022 14.1111C11.1266 14.1111 13.8613 11.3764 13.8613 7.99997C13.8613 4.62358 11.1266 1.88886 7.75022 1.88886C4.37383 1.88886 1.63911 4.62358 1.63911 7.99997C1.63911 11.3764 4.37383 14.1111 7.75022 14.1111Z" fill="white"/>
</svg>
