<svg width="48" height="48" viewBox="0 0 48 48" fill="none" xmlns="http://www.w3.org/2000/svg">
<rect y="0.00012207" width="48" height="48" rx="24" fill="white"/>
<path d="M29 25.1301V28.8271H26.857V25.3771C26.857 24.5111 26.547 23.9201 25.771 23.9201C25.179 23.9201 24.826 24.3181 24.671 24.7041C24.615 24.8421 24.6 25.0341 24.6 25.2261V28.8271H22.456C22.456 28.8271 22.485 22.9851 22.456 22.3801H24.6V23.2931L24.586 23.3141H24.6V23.2931C24.885 22.8531 25.393 22.2281 26.532 22.2281C27.942 22.2281 29 23.1501 29 25.1301ZM20.213 19.2711C19.48 19.2711 19 19.7531 19 20.3851C19 21.0051 19.466 21.5001 20.185 21.5001H20.199C20.947 21.5001 21.412 21.0041 21.412 20.3851C21.398 19.7531 20.947 19.2711 20.213 19.2711ZM19.127 28.8271H21.271V22.3801H19.127V28.8271Z" fill="#7D8BA1"/>
<path d="M24 32.0001C26.1217 32.0001 28.1566 31.1572 29.6569 29.657C31.1571 28.1567 32 26.1218 32 24.0001C32 21.8784 31.1571 19.8436 29.6569 18.3433C28.1566 16.843 26.1217 16.0001 24 16.0001C21.8783 16.0001 19.8434 16.843 18.3432 18.3433C16.8429 19.8436 16 21.8784 16 24.0001C16 26.1218 16.8429 28.1567 18.3432 29.657C19.8434 31.1572 21.8783 32.0001 24 32.0001ZM24 34.0001C18.477 34.0001 14 29.5231 14 24.0001C14 18.4771 18.477 14.0001 24 14.0001C29.523 14.0001 34 18.4771 34 24.0001C34 29.5231 29.523 34.0001 24 34.0001Z" fill="#7D8BA1"/>
</svg>
