<svg width="48" height="48" viewBox="0 0 48 48" fill="none" xmlns="http://www.w3.org/2000/svg">
<rect y="0.00012207" width="48" height="48" rx="24" fill="white"/>
<path d="M28.017 14.0001H19.947C18.3701 14.002 16.8584 14.6293 15.7435 15.7444C14.6286 16.8595 14.0016 18.3713 14 19.9481V28.0181C14.0019 29.5949 14.6291 31.1067 15.7442 32.2216C16.8593 33.3365 18.3711 33.9635 19.948 33.9651H28.018C29.5948 33.9632 31.1066 33.336 32.2215 32.2209C33.3364 31.1058 33.9634 29.5939 33.965 28.0171V19.9471C33.9631 18.3703 33.3359 16.8586 32.2208 15.7437C31.1057 14.6287 29.5938 14.0017 28.017 14.0001ZM31.957 28.0171C31.957 28.5345 31.8551 29.0468 31.6571 29.5249C31.4591 30.0029 31.1689 30.4372 30.803 30.8031C30.4371 31.169 30.0028 31.4592 29.5248 31.6572C29.0467 31.8552 28.5344 31.9571 28.017 31.9571H19.947C18.9022 31.9568 17.9003 31.5416 17.1617 30.8027C16.423 30.0639 16.008 29.0619 16.008 28.0171V19.9471C16.0083 18.9023 16.4235 17.9004 17.1624 17.1618C17.9012 16.4231 18.9032 16.0081 19.948 16.0081H28.018C29.0628 16.0084 30.0647 16.4236 30.8034 17.1625C31.542 17.9013 31.957 18.9033 31.957 19.9481V28.0171Z" fill="#7D8BA1"/>
<path d="M23.9823 18.8192C22.6137 18.8213 21.3018 19.366 20.3342 20.3338C19.3666 21.3016 18.8222 22.6136 18.8203 23.9822C18.8219 25.3511 19.3663 26.6635 20.3342 27.6316C21.3021 28.5997 22.6144 29.1443 23.9833 29.1462C25.3524 29.1446 26.665 28.6 27.6331 27.6319C28.6011 26.6638 29.1457 25.3513 29.1473 23.9822C29.1452 22.6133 28.6002 21.3011 27.632 20.3334C26.6637 19.3657 25.3512 18.8205 23.9823 18.8192ZM23.9823 27.1382C23.1455 27.1382 22.3431 26.8058 21.7514 26.2141C21.1597 25.6224 20.8273 24.8199 20.8273 23.9832C20.8273 23.1464 21.1597 22.3439 21.7514 21.7523C22.3431 21.1606 23.1455 20.8282 23.9823 20.8282C24.8191 20.8282 25.6216 21.1606 26.2132 21.7523C26.8049 22.3439 27.1373 23.1464 27.1373 23.9832C27.1373 24.8199 26.8049 25.6224 26.2132 26.2141C25.6216 26.8058 24.8191 27.1382 23.9823 27.1382Z" fill="#7D8BA1"/>
<path d="M29.1559 20.0952C29.8391 20.0952 30.3929 19.5414 30.3929 18.8582C30.3929 18.175 29.8391 17.6212 29.1559 17.6212C28.4727 17.6212 27.9189 18.175 27.9189 18.8582C27.9189 19.5414 28.4727 20.0952 29.1559 20.0952Z" fill="#7D8BA1"/>
</svg>
